g
# object dusek to come ...
#
v  100.165718 -33.223522 172.650009
v  101.655182 -33.223522 170.519638
v  98.502777 -31.223522 170.519638
v  98.502777 -33.223522 173.534439
v  -93.794418 -31.223522 170.519638
v  -93.794418 -33.223522 173.534439
v  -96.946823 -33.223522 170.519638
v  -95.457359 -33.223522 172.650009
v  101.655182 -33.223503 -208.675797
v  98.502777 -31.223503 -208.675797
v  -93.794418 -31.223503 -208.675797
v  -96.946823 -33.223503 -208.675797
v  100.664658 -33.223503 -211.154587
v  98.502777 -33.223503 -212.360596
v  -93.794418 -33.223503 -212.360596
v  -95.956299 -33.223503 -211.154587
v  100.165718 -33.223522 172.650009
v  100.165672 -75.306854 172.650055
v  101.655136 -75.306854 170.519684
v  101.655182 -33.223522 170.519638
v  98.502777 -33.223522 173.534439
v  98.502731 -75.306854 173.534485
v  100.165672 -75.306854 172.650055
v  100.165718 -33.223522 172.650009
v  -93.794418 -33.223522 173.534439
v  -93.794411 -75.306854 173.534485
v  98.502731 -75.306854 173.534485
v  98.502777 -33.223522 173.534439
v  -96.946823 -33.223522 170.519638
v  -96.946808 -75.306854 170.519684
v  -95.457344 -75.306854 172.650055
v  -95.457359 -33.223522 172.650009
v  -95.457359 -33.223522 172.650009
v  -95.457344 -75.306854 172.650055
v  -93.794411 -75.306854 173.534485
v  -93.794418 -33.223522 173.534439
v  101.655136 -75.306839 -208.675827
v  101.655182 -33.223503 -208.675797
v  -96.946823 -33.223503 -208.675797
v  -96.946808 -75.306839 -208.675827
v  100.664612 -75.306839 -211.154602
v  100.664658 -33.223503 -211.154587
v  100.664658 -33.223503 -211.154587
v  100.664612 -75.306839 -211.154602
v  98.502731 -75.306839 -212.360611
v  98.502777 -33.223503 -212.360596
v  -93.794411 -75.306839 -212.360611
v  -93.794418 -33.223503 -212.360596
v  -95.956284 -75.306839 -211.154602
v  -95.956299 -33.223503 -211.154587
v  -95.956299 -33.223503 -211.154587
v  -95.956284 -75.306839 -211.154602
v  98.502777 -75.306854 170.519638
v  101.655182 -75.306854 170.519638
v  100.165718 -75.306854 172.650009
v  98.502777 -75.306854 173.534439
v  -93.794418 -75.306854 173.534439
v  -93.794418 -75.306854 170.519638
v  -96.946823 -75.306854 170.519638
v  -95.457359 -75.306854 172.650009
v  98.502777 -75.306839 -208.675797
v  101.655182 -75.306839 -208.675797
v  -93.794418 -75.306839 -208.675797
v  -96.946823 -75.306839 -208.675797
v  98.502777 -75.306839 -212.360596
v  100.664658 -75.306839 -211.154587
v  -93.794418 -75.306839 -212.360596
v  -95.956299 -75.306839 -211.154587
# 68 vertices

vt  0.984510 0.008962 0.000000
vt  0.991906 0.014444 0.000000
vt  0.976253 0.014444 0.000000
vt  0.976253 0.006685 0.000000
vt  0.021456 0.014444 0.000000
vt  0.021456 0.006685 0.000000
vt  0.005804 0.014444 0.000000
vt  0.013200 0.008962 0.000000
vt  0.991906 0.990313 0.000000
vt  0.976253 0.990313 0.000000
vt  0.021456 0.990313 0.000000
vt  0.005804 0.990313 0.000000
vt  0.986987 0.996693 0.000000
vt  0.976253 0.999796 0.000000
vt  0.021456 0.999796 0.000000
vt  0.010722 0.996693 0.000000
vt  0.988841 0.998217 0.000000
vt  0.778563 0.998217 0.000000
vt  0.778563 0.992682 0.000000
vt  0.988841 0.992681 0.000000
vt  0.990387 0.006251 0.000000
vt  0.990386 0.262000 0.000000
vt  0.998879 0.262000 0.000000
vt  0.998879 0.006251 0.000000
vt  0.021981 0.999052 0.000000
vt  0.021981 0.739280 0.000000
vt  0.975591 0.739280 0.000000
vt  0.975592 0.999052 0.000000
vt  0.004583 0.011185 0.000000
vt  0.212886 0.011185 0.000000
vt  0.212886 0.005666 0.000000
vt  0.004583 0.005666 0.000000
vt  -0.000172 0.006251 0.000000
vt  -0.000171 0.262000 0.000000
vt  0.008321 0.262000 0.000000
vt  0.008321 0.006251 0.000000
vt  0.778563 0.007316 0.000000
vt  0.988841 0.007316 0.000000
vt  0.004583 0.993461 0.000000
vt  0.212886 0.993461 0.000000
vt  0.778563 0.000874 0.000000
vt  0.988841 0.000874 0.000000
vt  0.986628 0.991067 0.000000
vt  0.986628 0.738960 0.000000
vt  0.975901 0.738960 0.000000
vt  0.975901 0.991067 0.000000
vt  0.021730 0.738960 0.000000
vt  0.021730 0.991067 0.000000
vt  0.011002 0.738960 0.000000
vt  0.011002 0.991067 0.000000
vt  0.004583 0.999882 0.000000
vt  0.212886 0.999882 0.000000
vt  0.975227 0.991975 0.000000
vt  0.990880 0.991975 0.000000
vt  0.983484 0.997458 0.000000
vt  0.975227 0.999734 0.000000
vt  0.020431 0.999734 0.000000
vt  0.020431 0.991975 0.000000
vt  0.004778 0.991975 0.000000
vt  0.012174 0.997458 0.000000
vt  0.975227 0.016106 0.000000
vt  0.990880 0.016106 0.000000
vt  0.020431 0.016106 0.000000
vt  0.004778 0.016106 0.000000
vt  0.975227 0.006623 0.000000
vt  0.985962 0.009726 0.000000
vt  0.020431 0.006623 0.000000
vt  0.009696 0.009726 0.000000
# 68 texture vertices

vn  0.391924 0.803387 0.448291
vn  0.530133 0.835597 0.144004
vn  0.244775 0.935833 0.253579
vn  0.121552 0.827128 0.548712
vn  -0.258951 0.927768 0.268684
vn  -0.166452 0.851528 0.497185
vn  -0.492457 0.852880 0.173439
vn  0.000000 1.000000 0.000000
vn  0.475498 0.867153 -0.148149
vn  0.262544 0.937151 -0.229824
vn  -0.241856 0.947719 -0.208169
vn  -0.533377 0.840710 -0.093360
vn  0.000000 1.000000 0.000000
vn  0.154133 0.896968 -0.414358
vn  -0.108394 0.873707 -0.474222
vn  -0.385446 0.852942 -0.352025
vn  0.819556 -0.000000 0.572999
vn  0.819556 -0.000000 0.572999
vn  0.953823 -0.000001 0.300370
vn  0.953823 -0.000001 0.300369
vn  0.469566 0.000000 0.882897
vn  0.469566 0.000000 0.882897
vn  0.469566 0.000000 0.882897
vn  0.469566 0.000000 0.882897
vn  0.000000 0.000001 1.000000
vn  0.000000 0.000001 1.000000
vn  0.000000 0.000001 1.000000
vn  0.000000 0.000001 1.000000
vn  -0.953823 -0.000000 0.300369
vn  -0.953823 -0.000000 0.300370
vn  -0.819556 0.000000 0.572999
vn  -0.819556 0.000000 0.572999
vn  -0.469566 0.000001 0.882897
vn  -0.469568 0.000001 0.882896
vn  -0.469568 0.000001 0.882896
vn  -0.469566 0.000001 0.882897
vn  0.981989 -0.000001 -0.188939
vn  0.981989 -0.000001 -0.188938
vn  -0.981989 -0.000000 -0.188938
vn  -0.981989 -0.000000 -0.188939
vn  0.928604 -0.000001 -0.371072
vn  0.928605 -0.000001 -0.371070
vn  0.487175 -0.000000 -0.873305
vn  0.487175 -0.000000 -0.873305
vn  0.251689 0.000000 -0.967808
vn  0.251690 0.000000 -0.967808
vn  -0.251690 0.000000 -0.967808
vn  -0.251690 0.000000 -0.967808
vn  -0.487176 0.000000 -0.873304
vn  -0.487175 0.000000 -0.873305
vn  -0.928605 -0.000000 -0.371070
vn  -0.928604 -0.000000 -0.371072
vn  0.000000 -1.000000 -0.000000
vn  0.000000 -1.000000 -0.000000
vn  0.000000 -1.000000 0.000000
vn  0.000000 -1.000000 0.000000
vn  0.000000 -1.000000 0.000000
vn  0.000000 -1.000000 -0.000000
vn  0.000000 -1.000000 -0.000000
vn  0.000000 -1.000000 0.000000
vn  0.000000 -1.000000 -0.000000
vn  0.000000 -1.000000 -0.000000
vn  0.000000 -1.000000 -0.000000
vn  0.000000 -1.000000 -0.000000
vn  0.000000 -1.000000 0.000000
vn  0.000000 -1.000000 0.000000
vn  0.000000 -1.000000 0.000000
vn  0.000000 -1.000000 0.000000
# 68 vertex normals

g dusek
usemtl dsk
s 1
f 1/1/1 2/2/2 3/3/3
f 1/1/1 3/3/3 4/4/4
f 3/3/3 5/5/5 6/6/6
f 3/3/3 6/6/6 4/4/4
f 6/6/6 5/5/5 7/7/7
f 6/6/6 7/7/7 8/8/8
f 9/9/9 10/10/10 3/3/3
f 9/9/9 3/3/3 2/2/2
f 3/3/3 10/10/10 11/11/11
f 3/3/3 11/11/11 5/5/5
f 11/11/11 12/12/12 7/7/7
f 11/11/11 7/7/7 5/5/5
f 9/9/9 13/13/13 14/14/14
f 9/9/9 14/14/14 10/10/10
f 14/14/14 15/15/15 11/11/11
f 14/14/14 11/11/11 10/10/10
f 11/11/11 15/15/15 16/16/16
f 11/11/11 16/16/16 12/12/12
f 17/17/17 18/18/18 19/19/19
f 17/17/17 19/19/19 20/20/20
f 21/21/21 22/22/22 23/23/23
f 21/21/21 23/23/23 24/24/24
f 25/25/25 26/26/26 27/27/27
f 25/25/25 27/27/27 28/28/28
f 29/29/29 30/30/30 31/31/31
f 29/29/29 31/31/31 32/32/32
f 33/33/33 34/34/34 35/35/35
f 33/33/33 35/35/35 36/36/36
f 20/20/20 19/19/19 37/37/37
f 20/20/20 37/37/37 38/38/38
f 39/39/39 40/40/40 30/30/30
f 39/39/39 30/30/30 29/29/29
f 38/38/38 37/37/37 41/41/41
f 38/38/38 41/41/41 42/42/42
f 43/43/43 44/44/44 45/45/45
f 43/43/43 45/45/45 46/46/46
f 46/46/46 45/45/45 47/47/47
f 46/46/46 47/47/47 48/48/48
f 48/48/48 47/47/47 49/49/49
f 48/48/48 49/49/49 50/50/50
f 51/51/51 52/52/52 40/40/40
f 51/51/51 40/40/40 39/39/39
f 53/53/53 54/54/54 55/55/55
f 56/56/56 53/53/53 55/55/55
f 57/57/57 58/58/58 53/53/53
f 56/56/56 57/57/57 53/53/53
f 59/59/59 58/58/58 57/57/57
f 60/60/60 59/59/59 57/57/57
f 53/53/53 61/61/61 62/62/62
f 54/54/54 53/53/53 62/62/62
f 63/63/63 61/61/61 53/53/53
f 58/58/58 63/63/63 53/53/53
f 59/59/59 64/64/64 63/63/63
f 58/58/58 59/59/59 63/63/63
f 65/65/65 66/66/66 62/62/62
f 61/61/61 65/65/65 62/62/62
f 63/63/63 67/67/67 65/65/65
f 61/61/61 63/63/63 65/65/65
f 68/68/68 67/67/67 63/63/63
f 64/64/64 68/68/68 63/63/63
# 60 faces
g
